<svg width="200" height="200" viewBox="0 0 200 200" fill="none" xmlns="http://www.w3.org/2000/svg">
  <!-- Flame Icon for Wallet Roast -->
  <defs>
    <linearGradient id="flameGradient" x1="0%" y1="0%" x2="100%" y2="100%">
      <stop offset="0%" style="stop-color:#FF6B00;stop-opacity:1" />
      <stop offset="50%" style="stop-color:#FF8C00;stop-opacity:1" />
      <stop offset="100%" style="stop-color:#FFD700;stop-opacity:1" />
    </linearGradient>
  </defs>
  
  <!-- Outer Flame -->
  <path d="M100 30 C100 30, 120 60, 130 85 C140 110, 145 130, 140 150 C135 170, 120 185, 100 185 C80 185, 65 170, 60 150 C55 130, 60 110, 70 85 C80 60, 100 30, 100 30 Z" fill="url(#flameGradient)" opacity="0.8"/>
  
  <!-- Inner Flame -->
  <path d="M100 50 C100 50, 110 70, 115 90 C120 110, 120 130, 115 145 C110 160, 100 170, 100 170 C100 170, 90 160, 85 145 C80 130, 80 110, 85 90 C90 70, 100 50, 100 50 Z" fill="#FFD700" opacity="0.9"/>
  
  <!-- Core -->
  <ellipse cx="100" cy="130" rx="15" ry="25" fill="#FFFFFF" opacity="0.6"/>
</svg>

